<svg xmlns="http://www.w3.org/2000/svg" viewBox="0 0 1020.00 449.81">
  <style>
    .key-bg { fill: #f5f5f5; stroke: #d4d4d4; stroke-width: 1; }
    .key-index { fill: #171717; font-family: ui-monospace, SFMono-Regular, "SF Mono", Menlo, Consolas, "Liberation Mono", monospace; font-weight: 700; text-anchor: middle; dominant-baseline: central; }
    .key-part { font-family: system-ui, -apple-system, BlinkMacSystemFont, "Segoe UI", Roboto, sans-serif; text-anchor: middle; dominant-baseline: central; }
    @media (prefers-color-scheme: dark) {
      .key-bg { fill: #2a2a2a; stroke: #404040; }
      .key-index { fill: #e5e5e5; }
    }
    .key-bg.part-0 { stroke: #f59e0b; }
    .key-part.part-0 { fill: #f59e0b; }
    .key-bg.part-1 { stroke: #14b8a6; }
    .key-part.part-1 { fill: #14b8a6; }
  </style>
  <g>
    <path class="key-bg part-0" d="M 26.00,47.90 L 84.00,47.90 Q 88.00,47.90 88.00,51.90 L 88.00,109.90 Q 88.00,113.90 84.00,113.90 L 26.00,113.90 Q 22.00,113.90 22.00,109.90 L 22.00,51.90 Q 22.00,47.90 26.00,47.90 Z" />
    <path class="key-bg part-0" d="M 96.00,47.90 L 154.00,47.90 Q 158.00,47.90 158.00,51.90 L 158.00,109.90 Q 158.00,113.90 154.00,113.90 L 96.00,113.90 Q 92.00,113.90 92.00,109.90 L 92.00,51.90 Q 92.00,47.90 96.00,47.90 Z" />
    <path class="key-bg part-0" d="M 166.00,30.40 L 224.00,30.40 Q 228.00,30.40 228.00,34.40 L 228.00,92.40 Q 228.00,96.40 224.00,96.40 L 166.00,96.40 Q 162.00,96.40 162.00,92.40 L 162.00,34.40 Q 162.00,30.40 166.00,30.40 Z" />
    <path class="key-bg part-0" d="M 236.00,22.00 L 294.00,22.00 Q 298.00,22.00 298.00,26.00 L 298.00,84.00 Q 298.00,88.00 294.00,88.00 L 236.00,88.00 Q 232.00,88.00 232.00,84.00 L 232.00,26.00 Q 232.00,22.00 236.00,22.00 Z" />
    <path class="key-bg part-0" d="M 306.00,30.40 L 364.00,30.40 Q 368.00,30.40 368.00,34.40 L 368.00,92.40 Q 368.00,96.40 364.00,96.40 L 306.00,96.40 Q 302.00,96.40 302.00,92.40 L 302.00,34.40 Q 302.00,30.40 306.00,30.40 Z" />
    <path class="key-bg part-0" d="M 376.00,38.80 L 434.00,38.80 Q 438.00,38.80 438.00,42.80 L 438.00,100.80 Q 438.00,104.80 434.00,104.80 L 376.00,104.80 Q 372.00,104.80 372.00,100.80 L 372.00,42.80 Q 372.00,38.80 376.00,38.80 Z" />
    <path class="key-bg part-1" d="M 586.00,38.80 L 644.00,38.80 Q 648.00,38.80 648.00,42.80 L 648.00,100.80 Q 648.00,104.80 644.00,104.80 L 586.00,104.80 Q 582.00,104.80 582.00,100.80 L 582.00,42.80 Q 582.00,38.80 586.00,38.80 Z" />
    <path class="key-bg part-1" d="M 656.00,30.40 L 714.00,30.40 Q 718.00,30.40 718.00,34.40 L 718.00,92.40 Q 718.00,96.40 714.00,96.40 L 656.00,96.40 Q 652.00,96.40 652.00,92.40 L 652.00,34.40 Q 652.00,30.40 656.00,30.40 Z" />
    <path class="key-bg part-1" d="M 726.00,22.00 L 784.00,22.00 Q 788.00,22.00 788.00,26.00 L 788.00,84.00 Q 788.00,88.00 784.00,88.00 L 726.00,88.00 Q 722.00,88.00 722.00,84.00 L 722.00,26.00 Q 722.00,22.00 726.00,22.00 Z" />
    <path class="key-bg part-1" d="M 796.00,30.40 L 854.00,30.40 Q 858.00,30.40 858.00,34.40 L 858.00,92.40 Q 858.00,96.40 854.00,96.40 L 796.00,96.40 Q 792.00,96.40 792.00,92.40 L 792.00,34.40 Q 792.00,30.40 796.00,30.40 Z" />
    <path class="key-bg part-1" d="M 866.00,47.90 L 924.00,47.90 Q 928.00,47.90 928.00,51.90 L 928.00,109.90 Q 928.00,113.90 924.00,113.90 L 866.00,113.90 Q 862.00,113.90 862.00,109.90 L 862.00,51.90 Q 862.00,47.90 866.00,47.90 Z" />
    <path class="key-bg part-1" d="M 936.00,47.90 L 994.00,47.90 Q 998.00,47.90 998.00,51.90 L 998.00,109.90 Q 998.00,113.90 994.00,113.90 L 936.00,113.90 Q 932.00,113.90 932.00,109.90 L 932.00,51.90 Q 932.00,47.90 936.00,47.90 Z" />
    <path class="key-bg part-0" d="M 26.00,117.90 L 84.00,117.90 Q 88.00,117.90 88.00,121.90 L 88.00,179.90 Q 88.00,183.90 84.00,183.90 L 26.00,183.90 Q 22.00,183.90 22.00,179.90 L 22.00,121.90 Q 22.00,117.90 26.00,117.90 Z" />
    <path class="key-bg part-0" d="M 96.00,117.90 L 154.00,117.90 Q 158.00,117.90 158.00,121.90 L 158.00,179.90 Q 158.00,183.90 154.00,183.90 L 96.00,183.90 Q 92.00,183.90 92.00,179.90 L 92.00,121.90 Q 92.00,117.90 96.00,117.90 Z" />
    <path class="key-bg part-0" d="M 166.00,100.40 L 224.00,100.40 Q 228.00,100.40 228.00,104.40 L 228.00,162.40 Q 228.00,166.40 224.00,166.40 L 166.00,166.40 Q 162.00,166.40 162.00,162.40 L 162.00,104.40 Q 162.00,100.40 166.00,100.40 Z" />
    <path class="key-bg part-0" d="M 236.00,92.00 L 294.00,92.00 Q 298.00,92.00 298.00,96.00 L 298.00,154.00 Q 298.00,158.00 294.00,158.00 L 236.00,158.00 Q 232.00,158.00 232.00,154.00 L 232.00,96.00 Q 232.00,92.00 236.00,92.00 Z" />
    <path class="key-bg part-0" d="M 306.00,100.40 L 364.00,100.40 Q 368.00,100.40 368.00,104.40 L 368.00,162.40 Q 368.00,166.40 364.00,166.40 L 306.00,166.40 Q 302.00,166.40 302.00,162.40 L 302.00,104.40 Q 302.00,100.40 306.00,100.40 Z" />
    <path class="key-bg part-0" d="M 376.00,108.80 L 434.00,108.80 Q 438.00,108.80 438.00,112.80 L 438.00,170.80 Q 438.00,174.80 434.00,174.80 L 376.00,174.80 Q 372.00,174.80 372.00,170.80 L 372.00,112.80 Q 372.00,108.80 376.00,108.80 Z" />
    <path class="key-bg part-1" d="M 586.00,108.80 L 644.00,108.80 Q 648.00,108.80 648.00,112.80 L 648.00,170.80 Q 648.00,174.80 644.00,174.80 L 586.00,174.80 Q 582.00,174.80 582.00,170.80 L 582.00,112.80 Q 582.00,108.80 586.00,108.80 Z" />
    <path class="key-bg part-1" d="M 656.00,100.40 L 714.00,100.40 Q 718.00,100.40 718.00,104.40 L 718.00,162.40 Q 718.00,166.40 714.00,166.40 L 656.00,166.40 Q 652.00,166.40 652.00,162.40 L 652.00,104.40 Q 652.00,100.40 656.00,100.40 Z" />
    <path class="key-bg part-1" d="M 726.00,92.00 L 784.00,92.00 Q 788.00,92.00 788.00,96.00 L 788.00,154.00 Q 788.00,158.00 784.00,158.00 L 726.00,158.00 Q 722.00,158.00 722.00,154.00 L 722.00,96.00 Q 722.00,92.00 726.00,92.00 Z" />
    <path class="key-bg part-1" d="M 796.00,100.40 L 854.00,100.40 Q 858.00,100.40 858.00,104.40 L 858.00,162.40 Q 858.00,166.40 854.00,166.40 L 796.00,166.40 Q 792.00,166.40 792.00,162.40 L 792.00,104.40 Q 792.00,100.40 796.00,100.40 Z" />
    <path class="key-bg part-1" d="M 866.00,117.90 L 924.00,117.90 Q 928.00,117.90 928.00,121.90 L 928.00,179.90 Q 928.00,183.90 924.00,183.90 L 866.00,183.90 Q 862.00,183.90 862.00,179.90 L 862.00,121.90 Q 862.00,117.90 866.00,117.90 Z" />
    <path class="key-bg part-1" d="M 936.00,117.90 L 994.00,117.90 Q 998.00,117.90 998.00,121.90 L 998.00,179.90 Q 998.00,183.90 994.00,183.90 L 936.00,183.90 Q 932.00,183.90 932.00,179.90 L 932.00,121.90 Q 932.00,117.90 936.00,117.90 Z" />
    <path class="key-bg part-0" d="M 26.00,187.90 L 84.00,187.90 Q 88.00,187.90 88.00,191.90 L 88.00,249.90 Q 88.00,253.90 84.00,253.90 L 26.00,253.90 Q 22.00,253.90 22.00,249.90 L 22.00,191.90 Q 22.00,187.90 26.00,187.90 Z" />
    <path class="key-bg part-0" d="M 96.00,187.90 L 154.00,187.90 Q 158.00,187.90 158.00,191.90 L 158.00,249.90 Q 158.00,253.90 154.00,253.90 L 96.00,253.90 Q 92.00,253.90 92.00,249.90 L 92.00,191.90 Q 92.00,187.90 96.00,187.90 Z" />
    <path class="key-bg part-0" d="M 166.00,170.40 L 224.00,170.40 Q 228.00,170.40 228.00,174.40 L 228.00,232.40 Q 228.00,236.40 224.00,236.40 L 166.00,236.40 Q 162.00,236.40 162.00,232.40 L 162.00,174.40 Q 162.00,170.40 166.00,170.40 Z" />
    <path class="key-bg part-0" d="M 236.00,162.00 L 294.00,162.00 Q 298.00,162.00 298.00,166.00 L 298.00,224.00 Q 298.00,228.00 294.00,228.00 L 236.00,228.00 Q 232.00,228.00 232.00,224.00 L 232.00,166.00 Q 232.00,162.00 236.00,162.00 Z" />
    <path class="key-bg part-0" d="M 306.00,170.40 L 364.00,170.40 Q 368.00,170.40 368.00,174.40 L 368.00,232.40 Q 368.00,236.40 364.00,236.40 L 306.00,236.40 Q 302.00,236.40 302.00,232.40 L 302.00,174.40 Q 302.00,170.40 306.00,170.40 Z" />
    <path class="key-bg part-0" d="M 376.00,178.80 L 434.00,178.80 Q 438.00,178.80 438.00,182.80 L 438.00,240.80 Q 438.00,244.80 434.00,244.80 L 376.00,244.80 Q 372.00,244.80 372.00,240.80 L 372.00,182.80 Q 372.00,178.80 376.00,178.80 Z" />
    <path class="key-bg part-1" d="M 586.00,178.80 L 644.00,178.80 Q 648.00,178.80 648.00,182.80 L 648.00,240.80 Q 648.00,244.80 644.00,244.80 L 586.00,244.80 Q 582.00,244.80 582.00,240.80 L 582.00,182.80 Q 582.00,178.80 586.00,178.80 Z" />
    <path class="key-bg part-1" d="M 656.00,170.40 L 714.00,170.40 Q 718.00,170.40 718.00,174.40 L 718.00,232.40 Q 718.00,236.40 714.00,236.40 L 656.00,236.40 Q 652.00,236.40 652.00,232.40 L 652.00,174.40 Q 652.00,170.40 656.00,170.40 Z" />
    <path class="key-bg part-1" d="M 726.00,162.00 L 784.00,162.00 Q 788.00,162.00 788.00,166.00 L 788.00,224.00 Q 788.00,228.00 784.00,228.00 L 726.00,228.00 Q 722.00,228.00 722.00,224.00 L 722.00,166.00 Q 722.00,162.00 726.00,162.00 Z" />
    <path class="key-bg part-1" d="M 796.00,170.40 L 854.00,170.40 Q 858.00,170.40 858.00,174.40 L 858.00,232.40 Q 858.00,236.40 854.00,236.40 L 796.00,236.40 Q 792.00,236.40 792.00,232.40 L 792.00,174.40 Q 792.00,170.40 796.00,170.40 Z" />
    <path class="key-bg part-1" d="M 866.00,187.90 L 924.00,187.90 Q 928.00,187.90 928.00,191.90 L 928.00,249.90 Q 928.00,253.90 924.00,253.90 L 866.00,253.90 Q 862.00,253.90 862.00,249.90 L 862.00,191.90 Q 862.00,187.90 866.00,187.90 Z" />
    <path class="key-bg part-1" d="M 936.00,187.90 L 994.00,187.90 Q 998.00,187.90 998.00,191.90 L 998.00,249.90 Q 998.00,253.90 994.00,253.90 L 936.00,253.90 Q 932.00,253.90 932.00,249.90 L 932.00,191.90 Q 932.00,187.90 936.00,187.90 Z" />
    <path class="key-bg part-0" d="M 271.00,240.40 L 329.00,240.40 Q 333.00,240.40 333.00,244.40 L 333.00,302.40 Q 333.00,306.40 329.00,306.40 L 271.00,306.40 Q 267.00,306.40 267.00,302.40 L 267.00,244.40 Q 267.00,240.40 271.00,240.40 Z" />
    <path class="key-bg part-0" d="M 355.01,243.13 L 411.74,255.19 Q 415.65,256.02 414.82,259.94 L 402.76,316.67 Q 401.93,320.58 398.02,319.75 L 341.28,307.69 Q 337.37,306.86 338.20,302.95 L 350.26,246.21 Q 351.09,242.30 355.01,243.13 Z" />
    <path class="key-bg part-0" d="M 433.48,266.45 L 486.46,290.04 Q 490.11,291.66 488.49,295.32 L 464.90,348.30 Q 463.27,351.96 459.62,350.33 L 406.63,326.74 Q 402.98,325.11 404.60,321.46 L 428.19,268.47 Q 429.82,264.82 433.48,266.45 Z" />
    <path class="key-bg part-1" d="M 533.54,290.04 L 586.52,266.45 Q 590.18,264.82 591.81,268.47 L 615.40,321.46 Q 617.02,325.11 613.37,326.74 L 560.38,350.33 Q 556.73,351.96 555.10,348.30 L 531.51,295.32 Q 529.89,291.66 533.54,290.04 Z" />
    <path class="key-bg part-1" d="M 608.26,255.19 L 664.99,243.13 Q 668.91,242.30 669.74,246.21 L 681.80,302.95 Q 682.63,306.86 678.72,307.69 L 621.98,319.75 Q 618.07,320.58 617.24,316.67 L 605.18,259.94 Q 604.35,256.02 608.26,255.19 Z" />
    <path class="key-bg part-1" d="M 691.00,240.40 L 749.00,240.40 Q 753.00,240.40 753.00,244.40 L 753.00,302.40 Q 753.00,306.40 749.00,306.40 L 691.00,306.40 Q 687.00,306.40 687.00,302.40 L 687.00,244.40 Q 687.00,240.40 691.00,240.40 Z" />
    <path class="key-bg part-0" d="M 413.10,339.49 L 466.08,363.08 Q 469.74,364.71 468.11,368.37 L 444.52,421.35 Q 442.89,425.00 439.24,423.38 L 386.25,399.79 Q 382.60,398.16 384.23,394.51 L 407.82,341.52 Q 409.44,337.87 413.10,339.49 Z" />
    <path class="key-bg part-0" d="M 331.35,319.59 L 388.08,331.65 Q 392.00,332.48 391.17,336.39 L 379.11,393.13 Q 378.28,397.04 374.36,396.21 L 317.63,384.15 Q 313.72,383.32 314.55,379.40 L 326.61,322.67 Q 327.44,318.76 331.35,319.59 Z" />
    <path class="key-bg part-1" d="M 551.75,365.25 L 604.74,341.66 Q 608.39,340.03 610.02,343.69 L 633.61,396.67 Q 635.24,400.33 631.58,401.95 L 578.60,425.54 Q 574.94,427.17 573.32,423.52 L 549.73,370.53 Q 548.10,366.88 551.75,365.25 Z" />
    <path class="key-bg part-1" d="M 630.40,332.59 L 687.13,320.54 Q 691.04,319.70 691.87,323.62 L 703.93,380.35 Q 704.76,384.26 700.85,385.09 L 644.12,397.15 Q 640.21,397.98 639.37,394.07 L 627.31,337.34 Q 626.48,333.43 630.40,332.59 Z" />
  </g>
  <g>
    <text class="key-index" x="55.00" y="69.26" font-size="26">0</text>
    <text class="key-part part-0" x="55.00" y="96.54" font-size="18">left</text>
    <text class="key-index" x="125.00" y="69.26" font-size="26">1</text>
    <text class="key-part part-0" x="125.00" y="96.54" font-size="18">left</text>
    <text class="key-index" x="195.00" y="51.76" font-size="26">2</text>
    <text class="key-part part-0" x="195.00" y="79.04" font-size="18">left</text>
    <text class="key-index" x="265.00" y="43.36" font-size="26">3</text>
    <text class="key-part part-0" x="265.00" y="70.64" font-size="18">left</text>
    <text class="key-index" x="335.00" y="51.76" font-size="26">4</text>
    <text class="key-part part-0" x="335.00" y="79.04" font-size="18">left</text>
    <text class="key-index" x="405.00" y="60.16" font-size="26">5</text>
    <text class="key-part part-0" x="405.00" y="87.44" font-size="18">left</text>
    <text class="key-index" x="615.00" y="60.16" font-size="26">6</text>
    <text class="key-part part-1" x="615.00" y="87.44" font-size="18">right</text>
    <text class="key-index" x="685.00" y="51.76" font-size="26">7</text>
    <text class="key-part part-1" x="685.00" y="79.04" font-size="18">right</text>
    <text class="key-index" x="755.00" y="43.36" font-size="26">8</text>
    <text class="key-part part-1" x="755.00" y="70.64" font-size="18">right</text>
    <text class="key-index" x="825.00" y="51.76" font-size="26">9</text>
    <text class="key-part part-1" x="825.00" y="79.04" font-size="18">right</text>
    <text class="key-index" x="895.00" y="69.26" font-size="26">10</text>
    <text class="key-part part-1" x="895.00" y="96.54" font-size="18">right</text>
    <text class="key-index" x="965.00" y="69.26" font-size="26">11</text>
    <text class="key-part part-1" x="965.00" y="96.54" font-size="18">right</text>
    <text class="key-index" x="55.00" y="139.26" font-size="26">12</text>
    <text class="key-part part-0" x="55.00" y="166.54" font-size="18">left</text>
    <text class="key-index" x="125.00" y="139.26" font-size="26">13</text>
    <text class="key-part part-0" x="125.00" y="166.54" font-size="18">left</text>
    <text class="key-index" x="195.00" y="121.76" font-size="26">14</text>
    <text class="key-part part-0" x="195.00" y="149.04" font-size="18">left</text>
    <text class="key-index" x="265.00" y="113.36" font-size="26">15</text>
    <text class="key-part part-0" x="265.00" y="140.64" font-size="18">left</text>
    <text class="key-index" x="335.00" y="121.76" font-size="26">16</text>
    <text class="key-part part-0" x="335.00" y="149.04" font-size="18">left</text>
    <text class="key-index" x="405.00" y="130.16" font-size="26">17</text>
    <text class="key-part part-0" x="405.00" y="157.44" font-size="18">left</text>
    <text class="key-index" x="615.00" y="130.16" font-size="26">18</text>
    <text class="key-part part-1" x="615.00" y="157.44" font-size="18">right</text>
    <text class="key-index" x="685.00" y="121.76" font-size="26">19</text>
    <text class="key-part part-1" x="685.00" y="149.04" font-size="18">right</text>
    <text class="key-index" x="755.00" y="113.36" font-size="26">20</text>
    <text class="key-part part-1" x="755.00" y="140.64" font-size="18">right</text>
    <text class="key-index" x="825.00" y="121.76" font-size="26">21</text>
    <text class="key-part part-1" x="825.00" y="149.04" font-size="18">right</text>
    <text class="key-index" x="895.00" y="139.26" font-size="26">22</text>
    <text class="key-part part-1" x="895.00" y="166.54" font-size="18">right</text>
    <text class="key-index" x="965.00" y="139.26" font-size="26">23</text>
    <text class="key-part part-1" x="965.00" y="166.54" font-size="18">right</text>
    <text class="key-index" x="55.00" y="209.26" font-size="26">24</text>
    <text class="key-part part-0" x="55.00" y="236.54" font-size="18">left</text>
    <text class="key-index" x="125.00" y="209.26" font-size="26">25</text>
    <text class="key-part part-0" x="125.00" y="236.54" font-size="18">left</text>
    <text class="key-index" x="195.00" y="191.76" font-size="26">26</text>
    <text class="key-part part-0" x="195.00" y="219.04" font-size="18">left</text>
    <text class="key-index" x="265.00" y="183.36" font-size="26">27</text>
    <text class="key-part part-0" x="265.00" y="210.64" font-size="18">left</text>
    <text class="key-index" x="335.00" y="191.76" font-size="26">28</text>
    <text class="key-part part-0" x="335.00" y="219.04" font-size="18">left</text>
    <text class="key-index" x="405.00" y="200.16" font-size="26">29</text>
    <text class="key-part part-0" x="405.00" y="227.44" font-size="18">left</text>
    <text class="key-index" x="615.00" y="200.16" font-size="26">30</text>
    <text class="key-part part-1" x="615.00" y="227.44" font-size="18">right</text>
    <text class="key-index" x="685.00" y="191.76" font-size="26">31</text>
    <text class="key-part part-1" x="685.00" y="219.04" font-size="18">right</text>
    <text class="key-index" x="755.00" y="183.36" font-size="26">32</text>
    <text class="key-part part-1" x="755.00" y="210.64" font-size="18">right</text>
    <text class="key-index" x="825.00" y="191.76" font-size="26">33</text>
    <text class="key-part part-1" x="825.00" y="219.04" font-size="18">right</text>
    <text class="key-index" x="895.00" y="209.26" font-size="26">34</text>
    <text class="key-part part-1" x="895.00" y="236.54" font-size="18">right</text>
    <text class="key-index" x="965.00" y="209.26" font-size="26">35</text>
    <text class="key-part part-1" x="965.00" y="236.54" font-size="18">right</text>
    <text class="key-index" x="300.00" y="261.76" font-size="26">36</text>
    <text class="key-part part-0" x="300.00" y="289.04" font-size="18">left</text>
    <text class="key-index" x="376.51" y="269.80" font-size="26" transform="rotate(12 376.51 281.44)">37</text>
    <text class="key-part part-0" x="376.51" y="297.08" font-size="18" transform="rotate(12 376.51 281.44)">left</text>
    <text class="key-index" x="446.55" y="296.75" font-size="26" transform="rotate(24 446.55 308.39)">38</text>
    <text class="key-part part-0" x="446.55" y="324.03" font-size="18" transform="rotate(24 446.55 308.39)">left</text>
    <text class="key-index" x="573.45" y="296.75" font-size="26" transform="rotate(-24 573.45 308.39)">39</text>
    <text class="key-part part-1" x="573.45" y="324.03" font-size="18" transform="rotate(-24 573.45 308.39)">right</text>
    <text class="key-index" x="643.49" y="269.80" font-size="26" transform="rotate(-12 643.49 281.44)">40</text>
    <text class="key-part part-1" x="643.49" y="297.08" font-size="18" transform="rotate(-12 643.49 281.44)">right</text>
    <text class="key-index" x="720.00" y="261.76" font-size="26">41</text>
    <text class="key-part part-1" x="720.00" y="289.04" font-size="18">right</text>
    <text class="key-index" x="426.17" y="369.80" font-size="26" transform="rotate(24 426.17 381.44)">42</text>
    <text class="key-part part-0" x="426.17" y="397.08" font-size="18" transform="rotate(24 426.17 381.44)">left</text>
    <text class="key-index" x="352.86" y="346.26" font-size="26" transform="rotate(12 352.86 357.90)">43</text>
    <text class="key-part part-0" x="352.86" y="373.54" font-size="18" transform="rotate(12 352.86 357.90)">left</text>
    <text class="key-index" x="591.67" y="371.96" font-size="26" transform="rotate(-24 591.67 383.60)">44</text>
    <text class="key-part part-1" x="591.67" y="399.24" font-size="18" transform="rotate(-24 591.67 383.60)">right</text>
    <text class="key-index" x="665.62" y="347.20" font-size="26" transform="rotate(-12 665.62 358.84)">45</text>
    <text class="key-part part-1" x="665.62" y="374.48" font-size="18" transform="rotate(-12 665.62 358.84)">right</text>
  </g>
</svg>
